<mxfile host="Electron" modified="2024-06-29T12:04:51.617Z" agent="Mozilla/5.0 (Windows NT 10.0; Win64; x64) AppleWebKit/537.36 (KHTML, like Gecko) draw.io/24.5.3 Chrome/124.0.6367.207 Electron/30.0.6 Safari/537.36" etag="ZmDHDcgqvtJKaQZgxM6z" version="24.5.3" type="device">
  <diagram id="C5RBs43oDa-KdzZeNtuy" name="Page-1">
    <mxGraphModel dx="1434" dy="844" grid="1" gridSize="10" guides="1" tooltips="1" connect="1" arrows="1" fold="1" page="1" pageScale="1" pageWidth="827" pageHeight="1169" math="0" shadow="0">
      <root>
        <mxCell id="WIyWlLk6GJQsqaUBKTNV-0" />
        <mxCell id="WIyWlLk6GJQsqaUBKTNV-1" parent="WIyWlLk6GJQsqaUBKTNV-0" />
        <mxCell id="slaMEtAlK2tVnxXeX8oP-0" value="" style="rounded=0;whiteSpace=wrap;html=1;" parent="WIyWlLk6GJQsqaUBKTNV-1" vertex="1">
          <mxGeometry x="100" y="635" width="150" height="230" as="geometry" />
        </mxCell>
        <mxCell id="slaMEtAlK2tVnxXeX8oP-2" value="Container of varius WEEE" style="text;html=1;align=center;verticalAlign=middle;whiteSpace=wrap;rounded=0;" parent="WIyWlLk6GJQsqaUBKTNV-1" vertex="1">
          <mxGeometry x="140" y="585" width="80" height="30" as="geometry" />
        </mxCell>
        <mxCell id="slaMEtAlK2tVnxXeX8oP-7" value="" style="shape=mxgraph.signs.tech.cell_phone;html=1;pointerEvents=1;fillColor=#000000;strokeColor=none;verticalLabelPosition=bottom;verticalAlign=top;align=center;" parent="WIyWlLk6GJQsqaUBKTNV-1" vertex="1">
          <mxGeometry x="130" y="655" width="47" height="98" as="geometry" />
        </mxCell>
        <mxCell id="slaMEtAlK2tVnxXeX8oP-8" value="" style="fontColor=#0066CC;verticalAlign=top;verticalLabelPosition=bottom;labelPosition=center;align=center;html=1;outlineConnect=0;fillColor=#CCCCCC;strokeColor=#6881B3;gradientColor=none;gradientDirection=north;strokeWidth=2;shape=mxgraph.networks.desktop_pc;" parent="WIyWlLk6GJQsqaUBKTNV-1" vertex="1">
          <mxGeometry x="200" y="674" width="30" height="60" as="geometry" />
        </mxCell>
        <mxCell id="slaMEtAlK2tVnxXeX8oP-9" value="" style="verticalLabelPosition=bottom;sketch=0;aspect=fixed;html=1;verticalAlign=top;strokeColor=none;align=center;outlineConnect=0;shape=mxgraph.citrix.tablet_1;" parent="WIyWlLk6GJQsqaUBKTNV-1" vertex="1">
          <mxGeometry x="160" y="765" width="61" height="79" as="geometry" />
        </mxCell>
        <mxCell id="slaMEtAlK2tVnxXeX8oP-29" style="edgeStyle=orthogonalEdgeStyle;rounded=0;orthogonalLoop=1;jettySize=auto;html=1;entryX=0;entryY=0.5;entryDx=0;entryDy=0;" parent="WIyWlLk6GJQsqaUBKTNV-1" source="slaMEtAlK2tVnxXeX8oP-12" target="slaMEtAlK2tVnxXeX8oP-27" edge="1">
          <mxGeometry relative="1" as="geometry" />
        </mxCell>
        <mxCell id="slaMEtAlK2tVnxXeX8oP-12" value="" style="shape=mxgraph.signs.transportation.truck_6;html=1;pointerEvents=1;fillColor=#000000;strokeColor=none;verticalLabelPosition=bottom;verticalAlign=top;align=center;" parent="WIyWlLk6GJQsqaUBKTNV-1" vertex="1">
          <mxGeometry x="320" y="700" width="79" height="98" as="geometry" />
        </mxCell>
        <mxCell id="slaMEtAlK2tVnxXeX8oP-13" style="edgeStyle=orthogonalEdgeStyle;rounded=0;orthogonalLoop=1;jettySize=auto;html=1;entryX=0;entryY=0.5;entryDx=0;entryDy=0;entryPerimeter=0;" parent="WIyWlLk6GJQsqaUBKTNV-1" source="slaMEtAlK2tVnxXeX8oP-0" target="slaMEtAlK2tVnxXeX8oP-12" edge="1">
          <mxGeometry relative="1" as="geometry" />
        </mxCell>
        <mxCell id="slaMEtAlK2tVnxXeX8oP-39" style="edgeStyle=orthogonalEdgeStyle;rounded=0;orthogonalLoop=1;jettySize=auto;html=1;entryX=0;entryY=0.5;entryDx=0;entryDy=0;" parent="WIyWlLk6GJQsqaUBKTNV-1" source="slaMEtAlK2tVnxXeX8oP-17" target="slaMEtAlK2tVnxXeX8oP-37" edge="1">
          <mxGeometry relative="1" as="geometry">
            <Array as="points">
              <mxPoint x="1270" y="659" />
              <mxPoint x="1270" y="660" />
            </Array>
          </mxGeometry>
        </mxCell>
        <mxCell id="slaMEtAlK2tVnxXeX8oP-17" value="" style="rounded=0;whiteSpace=wrap;html=1;" parent="WIyWlLk6GJQsqaUBKTNV-1" vertex="1">
          <mxGeometry x="980" y="643" width="230" height="31" as="geometry" />
        </mxCell>
        <mxCell id="slaMEtAlK2tVnxXeX8oP-18" value="Platform 1&lt;div&gt;&amp;lt;5Kg&lt;/div&gt;" style="text;html=1;align=center;verticalAlign=middle;whiteSpace=wrap;rounded=0;" parent="WIyWlLk6GJQsqaUBKTNV-1" vertex="1">
          <mxGeometry x="1065" y="780" width="60" height="30" as="geometry" />
        </mxCell>
        <mxCell id="slaMEtAlK2tVnxXeX8oP-19" value="" style="rounded=0;whiteSpace=wrap;html=1;" parent="WIyWlLk6GJQsqaUBKTNV-1" vertex="1">
          <mxGeometry x="980" y="730.5" width="230" height="31" as="geometry" />
        </mxCell>
        <mxCell id="slaMEtAlK2tVnxXeX8oP-20" value="Platform 2&lt;div&gt;&amp;gt;= 5Kg &amp;amp;&amp;amp; &amp;lt; 15Kg&lt;/div&gt;" style="text;html=1;align=center;verticalAlign=middle;whiteSpace=wrap;rounded=0;" parent="WIyWlLk6GJQsqaUBKTNV-1" vertex="1">
          <mxGeometry x="1032.5" y="682" width="125" height="30" as="geometry" />
        </mxCell>
        <mxCell id="slaMEtAlK2tVnxXeX8oP-21" value="" style="rounded=0;whiteSpace=wrap;html=1;" parent="WIyWlLk6GJQsqaUBKTNV-1" vertex="1">
          <mxGeometry x="980" y="828" width="230" height="31" as="geometry" />
        </mxCell>
        <mxCell id="slaMEtAlK2tVnxXeX8oP-22" value="Platform&amp;nbsp;3&lt;div&gt;&amp;gt;= 15 Kg&lt;/div&gt;" style="text;html=1;align=center;verticalAlign=middle;whiteSpace=wrap;rounded=0;" parent="WIyWlLk6GJQsqaUBKTNV-1" vertex="1">
          <mxGeometry x="1065" y="585" width="60" height="30" as="geometry" />
        </mxCell>
        <mxCell id="slaMEtAlK2tVnxXeX8oP-31" style="edgeStyle=orthogonalEdgeStyle;rounded=0;orthogonalLoop=1;jettySize=auto;html=1;entryX=0;entryY=0.5;entryDx=0;entryDy=0;" parent="WIyWlLk6GJQsqaUBKTNV-1" source="slaMEtAlK2tVnxXeX8oP-26" target="slaMEtAlK2tVnxXeX8oP-17" edge="1">
          <mxGeometry relative="1" as="geometry" />
        </mxCell>
        <mxCell id="slaMEtAlK2tVnxXeX8oP-32" style="edgeStyle=orthogonalEdgeStyle;rounded=0;orthogonalLoop=1;jettySize=auto;html=1;entryX=0;entryY=0.5;entryDx=0;entryDy=0;" parent="WIyWlLk6GJQsqaUBKTNV-1" source="slaMEtAlK2tVnxXeX8oP-26" target="slaMEtAlK2tVnxXeX8oP-19" edge="1">
          <mxGeometry relative="1" as="geometry" />
        </mxCell>
        <mxCell id="slaMEtAlK2tVnxXeX8oP-33" style="edgeStyle=orthogonalEdgeStyle;rounded=0;orthogonalLoop=1;jettySize=auto;html=1;entryX=0;entryY=0.5;entryDx=0;entryDy=0;" parent="WIyWlLk6GJQsqaUBKTNV-1" source="slaMEtAlK2tVnxXeX8oP-26" target="slaMEtAlK2tVnxXeX8oP-21" edge="1">
          <mxGeometry relative="1" as="geometry" />
        </mxCell>
        <mxCell id="slaMEtAlK2tVnxXeX8oP-26" value="" style="image;aspect=fixed;html=1;points=[];align=center;fontSize=12;image=img/lib/azure2/other/Defender_PLC.svg;" parent="WIyWlLk6GJQsqaUBKTNV-1" vertex="1">
          <mxGeometry x="840" y="712" width="68" height="68" as="geometry" />
        </mxCell>
        <mxCell id="slaMEtAlK2tVnxXeX8oP-27" value="" style="rounded=0;whiteSpace=wrap;html=1;" parent="WIyWlLk6GJQsqaUBKTNV-1" vertex="1">
          <mxGeometry x="470" y="718" width="270" height="62" as="geometry" />
        </mxCell>
        <mxCell id="slaMEtAlK2tVnxXeX8oP-28" value="&lt;div&gt;Platform 0&lt;/div&gt;Main" style="text;html=1;align=center;verticalAlign=middle;whiteSpace=wrap;rounded=0;" parent="WIyWlLk6GJQsqaUBKTNV-1" vertex="1">
          <mxGeometry x="580" y="660" width="60" height="30" as="geometry" />
        </mxCell>
        <mxCell id="slaMEtAlK2tVnxXeX8oP-30" style="edgeStyle=orthogonalEdgeStyle;rounded=0;orthogonalLoop=1;jettySize=auto;html=1;entryX=-0.055;entryY=0.557;entryDx=0;entryDy=0;entryPerimeter=0;" parent="WIyWlLk6GJQsqaUBKTNV-1" source="slaMEtAlK2tVnxXeX8oP-27" target="slaMEtAlK2tVnxXeX8oP-26" edge="1">
          <mxGeometry relative="1" as="geometry" />
        </mxCell>
        <mxCell id="slaMEtAlK2tVnxXeX8oP-34" value="Sort by weight" style="text;html=1;align=center;verticalAlign=middle;whiteSpace=wrap;rounded=0;" parent="WIyWlLk6GJQsqaUBKTNV-1" vertex="1">
          <mxGeometry x="840" y="650" width="60" height="30" as="geometry" />
        </mxCell>
        <mxCell id="slaMEtAlK2tVnxXeX8oP-54" style="edgeStyle=orthogonalEdgeStyle;rounded=0;orthogonalLoop=1;jettySize=auto;html=1;entryX=0;entryY=0.5;entryDx=0;entryDy=0;" parent="WIyWlLk6GJQsqaUBKTNV-1" source="slaMEtAlK2tVnxXeX8oP-35" target="slaMEtAlK2tVnxXeX8oP-42" edge="1">
          <mxGeometry relative="1" as="geometry">
            <Array as="points">
              <mxPoint x="1360" y="1010" />
            </Array>
          </mxGeometry>
        </mxCell>
        <mxCell id="slaMEtAlK2tVnxXeX8oP-35" value="" style="rounded=0;whiteSpace=wrap;html=1;" parent="WIyWlLk6GJQsqaUBKTNV-1" vertex="1">
          <mxGeometry x="1330" y="620" width="60" height="260" as="geometry" />
        </mxCell>
        <mxCell id="slaMEtAlK2tVnxXeX8oP-36" value="Shreader" style="text;html=1;align=center;verticalAlign=middle;whiteSpace=wrap;rounded=0;" parent="WIyWlLk6GJQsqaUBKTNV-1" vertex="1">
          <mxGeometry x="1330" y="570" width="60" height="30" as="geometry" />
        </mxCell>
        <mxCell id="slaMEtAlK2tVnxXeX8oP-37" value="" style="rounded=0;whiteSpace=wrap;html=1;" parent="WIyWlLk6GJQsqaUBKTNV-1" vertex="1">
          <mxGeometry x="1330" y="620" width="60" height="80" as="geometry" />
        </mxCell>
        <mxCell id="slaMEtAlK2tVnxXeX8oP-38" value="" style="rounded=0;whiteSpace=wrap;html=1;" parent="WIyWlLk6GJQsqaUBKTNV-1" vertex="1">
          <mxGeometry x="1330" y="700" width="60" height="80" as="geometry" />
        </mxCell>
        <mxCell id="slaMEtAlK2tVnxXeX8oP-40" style="edgeStyle=orthogonalEdgeStyle;rounded=0;orthogonalLoop=1;jettySize=auto;html=1;entryX=-0.054;entryY=0.663;entryDx=0;entryDy=0;entryPerimeter=0;" parent="WIyWlLk6GJQsqaUBKTNV-1" source="slaMEtAlK2tVnxXeX8oP-19" target="slaMEtAlK2tVnxXeX8oP-38" edge="1">
          <mxGeometry relative="1" as="geometry">
            <Array as="points">
              <mxPoint x="1327" y="746" />
            </Array>
          </mxGeometry>
        </mxCell>
        <mxCell id="slaMEtAlK2tVnxXeX8oP-41" style="edgeStyle=orthogonalEdgeStyle;rounded=0;orthogonalLoop=1;jettySize=auto;html=1;entryX=0.017;entryY=0.856;entryDx=0;entryDy=0;entryPerimeter=0;" parent="WIyWlLk6GJQsqaUBKTNV-1" source="slaMEtAlK2tVnxXeX8oP-21" target="slaMEtAlK2tVnxXeX8oP-35" edge="1">
          <mxGeometry relative="1" as="geometry" />
        </mxCell>
        <mxCell id="slaMEtAlK2tVnxXeX8oP-56" style="edgeStyle=orthogonalEdgeStyle;rounded=0;orthogonalLoop=1;jettySize=auto;html=1;" parent="WIyWlLk6GJQsqaUBKTNV-1" source="slaMEtAlK2tVnxXeX8oP-42" target="slaMEtAlK2tVnxXeX8oP-55" edge="1">
          <mxGeometry relative="1" as="geometry" />
        </mxCell>
        <mxCell id="slaMEtAlK2tVnxXeX8oP-42" value="" style="rounded=0;whiteSpace=wrap;html=1;" parent="WIyWlLk6GJQsqaUBKTNV-1" vertex="1">
          <mxGeometry x="1450" y="980" width="310" height="60" as="geometry" />
        </mxCell>
        <mxCell id="slaMEtAlK2tVnxXeX8oP-43" value="&lt;div&gt;Platform 4&lt;/div&gt;Raw material platform" style="text;html=1;align=center;verticalAlign=middle;whiteSpace=wrap;rounded=0;" parent="WIyWlLk6GJQsqaUBKTNV-1" vertex="1">
          <mxGeometry x="1550" y="940" width="95" height="30" as="geometry" />
        </mxCell>
        <mxCell id="slaMEtAlK2tVnxXeX8oP-44" value="Strong&lt;div&gt;Power&lt;/div&gt;" style="text;html=1;align=center;verticalAlign=middle;whiteSpace=wrap;rounded=0;" parent="WIyWlLk6GJQsqaUBKTNV-1" vertex="1">
          <mxGeometry x="1330" y="643" width="60" height="30" as="geometry" />
        </mxCell>
        <mxCell id="slaMEtAlK2tVnxXeX8oP-45" value="Medium&lt;div&gt;Power&lt;/div&gt;" style="text;html=1;align=center;verticalAlign=middle;whiteSpace=wrap;rounded=0;" parent="WIyWlLk6GJQsqaUBKTNV-1" vertex="1">
          <mxGeometry x="1330" y="725" width="60" height="30" as="geometry" />
        </mxCell>
        <mxCell id="slaMEtAlK2tVnxXeX8oP-46" value="Low&lt;div&gt;Power&lt;/div&gt;" style="text;html=1;align=center;verticalAlign=middle;whiteSpace=wrap;rounded=0;" parent="WIyWlLk6GJQsqaUBKTNV-1" vertex="1">
          <mxGeometry x="1330" y="810" width="60" height="30" as="geometry" />
        </mxCell>
        <mxCell id="slaMEtAlK2tVnxXeX8oP-50" style="edgeStyle=orthogonalEdgeStyle;rounded=0;orthogonalLoop=1;jettySize=auto;html=1;entryX=1;entryY=0.5;entryDx=0;entryDy=0;" parent="WIyWlLk6GJQsqaUBKTNV-1" source="slaMEtAlK2tVnxXeX8oP-49" target="slaMEtAlK2tVnxXeX8oP-37" edge="1">
          <mxGeometry relative="1" as="geometry" />
        </mxCell>
        <mxCell id="slaMEtAlK2tVnxXeX8oP-51" style="edgeStyle=orthogonalEdgeStyle;rounded=0;orthogonalLoop=1;jettySize=auto;html=1;entryX=1;entryY=0.75;entryDx=0;entryDy=0;" parent="WIyWlLk6GJQsqaUBKTNV-1" source="slaMEtAlK2tVnxXeX8oP-49" target="slaMEtAlK2tVnxXeX8oP-45" edge="1">
          <mxGeometry relative="1" as="geometry" />
        </mxCell>
        <mxCell id="slaMEtAlK2tVnxXeX8oP-52" style="edgeStyle=orthogonalEdgeStyle;rounded=0;orthogonalLoop=1;jettySize=auto;html=1;entryX=1;entryY=0.75;entryDx=0;entryDy=0;" parent="WIyWlLk6GJQsqaUBKTNV-1" source="slaMEtAlK2tVnxXeX8oP-49" target="slaMEtAlK2tVnxXeX8oP-46" edge="1">
          <mxGeometry relative="1" as="geometry" />
        </mxCell>
        <mxCell id="slaMEtAlK2tVnxXeX8oP-49" value="" style="sketch=0;outlineConnect=0;fontColor=#232F3E;gradientColor=none;fillColor=#7AA116;strokeColor=none;dashed=0;verticalLabelPosition=bottom;verticalAlign=top;align=center;html=1;fontSize=12;fontStyle=0;aspect=fixed;pointerEvents=1;shape=mxgraph.aws4.iot_thing_plc;" parent="WIyWlLk6GJQsqaUBKTNV-1" vertex="1">
          <mxGeometry x="1510" y="707" width="78" height="78" as="geometry" />
        </mxCell>
        <mxCell id="slaMEtAlK2tVnxXeX8oP-53" value="Control shreader status" style="text;html=1;align=center;verticalAlign=middle;whiteSpace=wrap;rounded=0;" parent="WIyWlLk6GJQsqaUBKTNV-1" vertex="1">
          <mxGeometry x="1504.5" y="666.5" width="89" height="30" as="geometry" />
        </mxCell>
        <mxCell id="slaMEtAlK2tVnxXeX8oP-96" style="edgeStyle=orthogonalEdgeStyle;rounded=0;orthogonalLoop=1;jettySize=auto;html=1;entryX=0;entryY=0.5;entryDx=0;entryDy=0;" parent="WIyWlLk6GJQsqaUBKTNV-1" source="slaMEtAlK2tVnxXeX8oP-55" target="slaMEtAlK2tVnxXeX8oP-57" edge="1">
          <mxGeometry relative="1" as="geometry">
            <Array as="points">
              <mxPoint x="1834" y="910" />
              <mxPoint x="1694" y="910" />
            </Array>
          </mxGeometry>
        </mxCell>
        <mxCell id="slaMEtAlK2tVnxXeX8oP-97" style="edgeStyle=orthogonalEdgeStyle;rounded=0;orthogonalLoop=1;jettySize=auto;html=1;entryX=0;entryY=0.5;entryDx=0;entryDy=0;" parent="WIyWlLk6GJQsqaUBKTNV-1" source="slaMEtAlK2tVnxXeX8oP-55" target="slaMEtAlK2tVnxXeX8oP-59" edge="1">
          <mxGeometry relative="1" as="geometry" />
        </mxCell>
        <mxCell id="slaMEtAlK2tVnxXeX8oP-98" style="edgeStyle=orthogonalEdgeStyle;rounded=0;orthogonalLoop=1;jettySize=auto;html=1;entryX=0;entryY=0.5;entryDx=0;entryDy=0;" parent="WIyWlLk6GJQsqaUBKTNV-1" source="slaMEtAlK2tVnxXeX8oP-55" target="slaMEtAlK2tVnxXeX8oP-61" edge="1">
          <mxGeometry relative="1" as="geometry">
            <Array as="points">
              <mxPoint x="1834" y="910" />
              <mxPoint x="1984" y="910" />
            </Array>
          </mxGeometry>
        </mxCell>
        <mxCell id="slaMEtAlK2tVnxXeX8oP-55" value="" style="image;aspect=fixed;html=1;points=[];align=center;fontSize=12;image=img/lib/azure2/other/Defender_PLC.svg;" parent="WIyWlLk6GJQsqaUBKTNV-1" vertex="1">
          <mxGeometry x="1800" y="976" width="68" height="68" as="geometry" />
        </mxCell>
        <mxCell id="slaMEtAlK2tVnxXeX8oP-57" value="" style="rounded=0;whiteSpace=wrap;html=1;rotation=-90;" parent="WIyWlLk6GJQsqaUBKTNV-1" vertex="1">
          <mxGeometry x="1579" y="734.5" width="230" height="31" as="geometry" />
        </mxCell>
        <mxCell id="slaMEtAlK2tVnxXeX8oP-58" value="Platform 5&lt;div&gt;low density&lt;/div&gt;" style="text;html=1;align=center;verticalAlign=middle;whiteSpace=wrap;rounded=0;" parent="WIyWlLk6GJQsqaUBKTNV-1" vertex="1">
          <mxGeometry x="1885.5" y="700" width="73" height="30" as="geometry" />
        </mxCell>
        <mxCell id="slaMEtAlK2tVnxXeX8oP-59" value="" style="rounded=0;whiteSpace=wrap;html=1;rotation=-90;" parent="WIyWlLk6GJQsqaUBKTNV-1" vertex="1">
          <mxGeometry x="1719" y="735.5" width="230" height="31" as="geometry" />
        </mxCell>
        <mxCell id="slaMEtAlK2tVnxXeX8oP-60" value="Platform 6&lt;div&gt;medium density&lt;/div&gt;" style="text;html=1;align=center;verticalAlign=middle;whiteSpace=wrap;rounded=0;" parent="WIyWlLk6GJQsqaUBKTNV-1" vertex="1">
          <mxGeometry x="1719" y="700" width="91" height="30" as="geometry" />
        </mxCell>
        <mxCell id="slaMEtAlK2tVnxXeX8oP-61" value="" style="rounded=0;whiteSpace=wrap;html=1;rotation=-90;" parent="WIyWlLk6GJQsqaUBKTNV-1" vertex="1">
          <mxGeometry x="1869" y="735.5" width="230" height="31" as="geometry" />
        </mxCell>
        <mxCell id="slaMEtAlK2tVnxXeX8oP-62" value="Platform 7&lt;div&gt;high density&lt;/div&gt;" style="text;html=1;align=center;verticalAlign=middle;whiteSpace=wrap;rounded=0;" parent="WIyWlLk6GJQsqaUBKTNV-1" vertex="1">
          <mxGeometry x="1610" y="700" width="72" height="30" as="geometry" />
        </mxCell>
        <mxCell id="slaMEtAlK2tVnxXeX8oP-66" value="Sort by density" style="text;html=1;align=center;verticalAlign=middle;whiteSpace=wrap;rounded=0;" parent="WIyWlLk6GJQsqaUBKTNV-1" vertex="1">
          <mxGeometry x="1804" y="1080" width="60" height="30" as="geometry" />
        </mxCell>
        <mxCell id="slaMEtAlK2tVnxXeX8oP-67" value="" style="shape=mxgraph.signs.tech.cell_phone;html=1;pointerEvents=1;fillColor=#000000;strokeColor=none;verticalLabelPosition=bottom;verticalAlign=top;align=center;" parent="WIyWlLk6GJQsqaUBKTNV-1" vertex="1">
          <mxGeometry x="500" y="687" width="47" height="98" as="geometry" />
        </mxCell>
        <mxCell id="slaMEtAlK2tVnxXeX8oP-68" value="" style="fontColor=#0066CC;verticalAlign=top;verticalLabelPosition=bottom;labelPosition=center;align=center;html=1;outlineConnect=0;fillColor=#CCCCCC;strokeColor=#6881B3;gradientColor=none;gradientDirection=north;strokeWidth=2;shape=mxgraph.networks.desktop_pc;" parent="WIyWlLk6GJQsqaUBKTNV-1" vertex="1">
          <mxGeometry x="595" y="725" width="30" height="60" as="geometry" />
        </mxCell>
        <mxCell id="slaMEtAlK2tVnxXeX8oP-69" value="" style="verticalLabelPosition=bottom;sketch=0;aspect=fixed;html=1;verticalAlign=top;strokeColor=none;align=center;outlineConnect=0;shape=mxgraph.citrix.tablet_1;" parent="WIyWlLk6GJQsqaUBKTNV-1" vertex="1">
          <mxGeometry x="660" y="700" width="61" height="79" as="geometry" />
        </mxCell>
        <mxCell id="slaMEtAlK2tVnxXeX8oP-70" value="" style="shape=mxgraph.signs.tech.cell_phone;html=1;pointerEvents=1;fillColor=#000000;strokeColor=none;verticalLabelPosition=bottom;verticalAlign=top;align=center;" parent="WIyWlLk6GJQsqaUBKTNV-1" vertex="1">
          <mxGeometry x="1010" y="785" width="47" height="98" as="geometry" />
        </mxCell>
        <mxCell id="slaMEtAlK2tVnxXeX8oP-71" value="" style="verticalLabelPosition=bottom;sketch=0;aspect=fixed;html=1;verticalAlign=top;strokeColor=none;align=center;outlineConnect=0;shape=mxgraph.citrix.tablet_1;" parent="WIyWlLk6GJQsqaUBKTNV-1" vertex="1">
          <mxGeometry x="1003" y="696.5" width="61" height="79" as="geometry" />
        </mxCell>
        <mxCell id="slaMEtAlK2tVnxXeX8oP-72" value="" style="fontColor=#0066CC;verticalAlign=top;verticalLabelPosition=bottom;labelPosition=center;align=center;html=1;outlineConnect=0;fillColor=#CCCCCC;strokeColor=#6881B3;gradientColor=none;gradientDirection=north;strokeWidth=2;shape=mxgraph.networks.desktop_pc;" parent="WIyWlLk6GJQsqaUBKTNV-1" vertex="1">
          <mxGeometry x="1018.5" y="623" width="30" height="60" as="geometry" />
        </mxCell>
        <mxCell id="slaMEtAlK2tVnxXeX8oP-73" value="Gold" style="label;whiteSpace=wrap;html=1;image=img/clipart/Gear_128x128.png" parent="WIyWlLk6GJQsqaUBKTNV-1" vertex="1">
          <mxGeometry x="1460" y="989.5" width="90" height="36" as="geometry" />
        </mxCell>
        <mxCell id="slaMEtAlK2tVnxXeX8oP-74" value="Steel" style="label;whiteSpace=wrap;html=1;image=img/clipart/Gear_128x128.png" parent="WIyWlLk6GJQsqaUBKTNV-1" vertex="1">
          <mxGeometry x="1564" y="989.5" width="90" height="36" as="geometry" />
        </mxCell>
        <mxCell id="slaMEtAlK2tVnxXeX8oP-75" value="Copper" style="label;whiteSpace=wrap;html=1;image=img/clipart/Gear_128x128.png" parent="WIyWlLk6GJQsqaUBKTNV-1" vertex="1">
          <mxGeometry x="1660" y="989.5" width="90" height="36" as="geometry" />
        </mxCell>
        <mxCell id="slaMEtAlK2tVnxXeX8oP-76" value="Copper" style="label;whiteSpace=wrap;html=1;image=img/clipart/Gear_128x128.png" parent="WIyWlLk6GJQsqaUBKTNV-1" vertex="1">
          <mxGeometry x="1927.5" y="810" width="90" height="36" as="geometry" />
        </mxCell>
        <mxCell id="slaMEtAlK2tVnxXeX8oP-92" value="" style="rounded=0;whiteSpace=wrap;html=1;" parent="WIyWlLk6GJQsqaUBKTNV-1" vertex="1">
          <mxGeometry x="1516.5" y="40" width="630" height="355" as="geometry" />
        </mxCell>
        <mxCell id="slaMEtAlK2tVnxXeX8oP-77" value="Steel" style="label;whiteSpace=wrap;html=1;image=img/clipart/Gear_128x128.png" parent="WIyWlLk6GJQsqaUBKTNV-1" vertex="1">
          <mxGeometry x="1579" y="114" width="90" height="36" as="geometry" />
        </mxCell>
        <mxCell id="slaMEtAlK2tVnxXeX8oP-78" value="Gold" style="label;whiteSpace=wrap;html=1;image=img/clipart/Gear_128x128.png" parent="WIyWlLk6GJQsqaUBKTNV-1" vertex="1">
          <mxGeometry x="1787" y="811.5" width="90" height="36" as="geometry" />
        </mxCell>
        <mxCell id="slaMEtAlK2tVnxXeX8oP-94" style="edgeStyle=orthogonalEdgeStyle;rounded=0;orthogonalLoop=1;jettySize=auto;html=1;entryX=0;entryY=0.5;entryDx=0;entryDy=0;" parent="WIyWlLk6GJQsqaUBKTNV-1" source="slaMEtAlK2tVnxXeX8oP-79" target="slaMEtAlK2tVnxXeX8oP-93" edge="1">
          <mxGeometry relative="1" as="geometry" />
        </mxCell>
        <mxCell id="slaMEtAlK2tVnxXeX8oP-114" style="edgeStyle=orthogonalEdgeStyle;rounded=0;orthogonalLoop=1;jettySize=auto;html=1;entryX=1;entryY=0.75;entryDx=0;entryDy=0;" parent="WIyWlLk6GJQsqaUBKTNV-1" source="slaMEtAlK2tVnxXeX8oP-79" target="slaMEtAlK2tVnxXeX8oP-57" edge="1">
          <mxGeometry relative="1" as="geometry">
            <Array as="points">
              <mxPoint x="1702" y="590" />
            </Array>
          </mxGeometry>
        </mxCell>
        <mxCell id="slaMEtAlK2tVnxXeX8oP-115" style="edgeStyle=orthogonalEdgeStyle;rounded=0;orthogonalLoop=1;jettySize=auto;html=1;entryX=1;entryY=0.75;entryDx=0;entryDy=0;" parent="WIyWlLk6GJQsqaUBKTNV-1" source="slaMEtAlK2tVnxXeX8oP-79" target="slaMEtAlK2tVnxXeX8oP-59" edge="1">
          <mxGeometry relative="1" as="geometry" />
        </mxCell>
        <mxCell id="slaMEtAlK2tVnxXeX8oP-116" style="edgeStyle=orthogonalEdgeStyle;rounded=0;orthogonalLoop=1;jettySize=auto;html=1;entryX=1;entryY=0.75;entryDx=0;entryDy=0;" parent="WIyWlLk6GJQsqaUBKTNV-1" source="slaMEtAlK2tVnxXeX8oP-79" target="slaMEtAlK2tVnxXeX8oP-61" edge="1">
          <mxGeometry relative="1" as="geometry" />
        </mxCell>
        <mxCell id="slaMEtAlK2tVnxXeX8oP-79" value="" style="sketch=0;outlineConnect=0;fontColor=#232F3E;gradientColor=none;fillColor=#7AA116;strokeColor=none;dashed=0;verticalLabelPosition=bottom;verticalAlign=top;align=center;html=1;fontSize=12;fontStyle=0;aspect=fixed;pointerEvents=1;shape=mxgraph.aws4.iot_thing_plc;" parent="WIyWlLk6GJQsqaUBKTNV-1" vertex="1">
          <mxGeometry x="2099" y="552" width="78" height="78" as="geometry" />
        </mxCell>
        <mxCell id="slaMEtAlK2tVnxXeX8oP-84" value="Clense imputiry" style="text;html=1;align=center;verticalAlign=middle;whiteSpace=wrap;rounded=0;" parent="WIyWlLk6GJQsqaUBKTNV-1" vertex="1">
          <mxGeometry x="2108" y="470" width="60" height="30" as="geometry" />
        </mxCell>
        <mxCell id="slaMEtAlK2tVnxXeX8oP-85" value="" style="shape=manualInput;whiteSpace=wrap;html=1;" parent="WIyWlLk6GJQsqaUBKTNV-1" vertex="1">
          <mxGeometry x="1669" y="140.5" width="50" height="185" as="geometry" />
        </mxCell>
        <mxCell id="slaMEtAlK2tVnxXeX8oP-86" value="" style="shape=manualInput;whiteSpace=wrap;html=1;" parent="WIyWlLk6GJQsqaUBKTNV-1" vertex="1">
          <mxGeometry x="1806.5" y="140.5" width="50" height="185" as="geometry" />
        </mxCell>
        <mxCell id="slaMEtAlK2tVnxXeX8oP-87" value="Gold" style="label;whiteSpace=wrap;html=1;image=img/clipart/Gear_128x128.png" parent="WIyWlLk6GJQsqaUBKTNV-1" vertex="1">
          <mxGeometry x="1778.5" y="78" width="90" height="36" as="geometry" />
        </mxCell>
        <mxCell id="slaMEtAlK2tVnxXeX8oP-88" value="Steel" style="label;whiteSpace=wrap;html=1;image=img/clipart/Gear_128x128.png" parent="WIyWlLk6GJQsqaUBKTNV-1" vertex="1">
          <mxGeometry x="1649" y="811.5" width="90" height="36" as="geometry" />
        </mxCell>
        <mxCell id="slaMEtAlK2tVnxXeX8oP-89" value="" style="shape=manualInput;whiteSpace=wrap;html=1;" parent="WIyWlLk6GJQsqaUBKTNV-1" vertex="1">
          <mxGeometry x="1958.5" y="140.5" width="50" height="185" as="geometry" />
        </mxCell>
        <mxCell id="slaMEtAlK2tVnxXeX8oP-90" value="Copper" style="label;whiteSpace=wrap;html=1;image=img/clipart/Gear_128x128.png" parent="WIyWlLk6GJQsqaUBKTNV-1" vertex="1">
          <mxGeometry x="2017.5" y="100" width="90" height="36" as="geometry" />
        </mxCell>
        <mxCell id="slaMEtAlK2tVnxXeX8oP-91" value="RawMaterialStorage" style="text;html=1;align=center;verticalAlign=middle;whiteSpace=wrap;rounded=0;" parent="WIyWlLk6GJQsqaUBKTNV-1" vertex="1">
          <mxGeometry x="1788.5" width="60" height="30" as="geometry" />
        </mxCell>
        <mxCell id="slaMEtAlK2tVnxXeX8oP-122" style="edgeStyle=orthogonalEdgeStyle;rounded=0;orthogonalLoop=1;jettySize=auto;html=1;" parent="WIyWlLk6GJQsqaUBKTNV-1" source="slaMEtAlK2tVnxXeX8oP-93" target="slaMEtAlK2tVnxXeX8oP-120" edge="1">
          <mxGeometry relative="1" as="geometry" />
        </mxCell>
        <mxCell id="slaMEtAlK2tVnxXeX8oP-93" value="" style="rounded=0;whiteSpace=wrap;html=1;rotation=90;" parent="WIyWlLk6GJQsqaUBKTNV-1" vertex="1">
          <mxGeometry x="2190" y="744.5" width="180" height="31" as="geometry" />
        </mxCell>
        <mxCell id="slaMEtAlK2tVnxXeX8oP-95" value="&lt;div&gt;Platform 8&lt;/div&gt;Unsorted material" style="text;html=1;align=center;verticalAlign=middle;whiteSpace=wrap;rounded=0;" parent="WIyWlLk6GJQsqaUBKTNV-1" vertex="1">
          <mxGeometry x="2177" y="738" width="60" height="30" as="geometry" />
        </mxCell>
        <mxCell id="slaMEtAlK2tVnxXeX8oP-108" style="edgeStyle=orthogonalEdgeStyle;rounded=0;orthogonalLoop=1;jettySize=auto;html=1;entryX=0.5;entryY=1;entryDx=0;entryDy=0;" parent="WIyWlLk6GJQsqaUBKTNV-1" source="slaMEtAlK2tVnxXeX8oP-99" target="slaMEtAlK2tVnxXeX8oP-85" edge="1">
          <mxGeometry relative="1" as="geometry" />
        </mxCell>
        <mxCell id="slaMEtAlK2tVnxXeX8oP-99" value="" style="shape=mxgraph.signs.transportation.truck_6;html=1;pointerEvents=1;fillColor=#000000;strokeColor=none;verticalLabelPosition=bottom;verticalAlign=top;align=center;" parent="WIyWlLk6GJQsqaUBKTNV-1" vertex="1">
          <mxGeometry x="1669" y="500" width="50" height="70" as="geometry" />
        </mxCell>
        <mxCell id="slaMEtAlK2tVnxXeX8oP-109" style="edgeStyle=orthogonalEdgeStyle;rounded=0;orthogonalLoop=1;jettySize=auto;html=1;entryX=0.5;entryY=1;entryDx=0;entryDy=0;" parent="WIyWlLk6GJQsqaUBKTNV-1" source="slaMEtAlK2tVnxXeX8oP-100" target="slaMEtAlK2tVnxXeX8oP-86" edge="1">
          <mxGeometry relative="1" as="geometry" />
        </mxCell>
        <mxCell id="slaMEtAlK2tVnxXeX8oP-100" value="" style="shape=mxgraph.signs.transportation.truck_6;html=1;pointerEvents=1;fillColor=#000000;strokeColor=none;verticalLabelPosition=bottom;verticalAlign=top;align=center;" parent="WIyWlLk6GJQsqaUBKTNV-1" vertex="1">
          <mxGeometry x="1807" y="500" width="50" height="70" as="geometry" />
        </mxCell>
        <mxCell id="slaMEtAlK2tVnxXeX8oP-110" style="edgeStyle=orthogonalEdgeStyle;rounded=0;orthogonalLoop=1;jettySize=auto;html=1;entryX=0.5;entryY=1;entryDx=0;entryDy=0;" parent="WIyWlLk6GJQsqaUBKTNV-1" source="slaMEtAlK2tVnxXeX8oP-101" target="slaMEtAlK2tVnxXeX8oP-89" edge="1">
          <mxGeometry relative="1" as="geometry" />
        </mxCell>
        <mxCell id="slaMEtAlK2tVnxXeX8oP-101" value="" style="shape=mxgraph.signs.transportation.truck_6;html=1;pointerEvents=1;fillColor=#000000;strokeColor=none;verticalLabelPosition=bottom;verticalAlign=top;align=center;" parent="WIyWlLk6GJQsqaUBKTNV-1" vertex="1">
          <mxGeometry x="1959" y="498" width="50" height="70" as="geometry" />
        </mxCell>
        <mxCell id="slaMEtAlK2tVnxXeX8oP-102" style="edgeStyle=orthogonalEdgeStyle;rounded=0;orthogonalLoop=1;jettySize=auto;html=1;entryX=0.5;entryY=0.85;entryDx=0;entryDy=0;entryPerimeter=0;" parent="WIyWlLk6GJQsqaUBKTNV-1" source="slaMEtAlK2tVnxXeX8oP-57" target="slaMEtAlK2tVnxXeX8oP-99" edge="1">
          <mxGeometry relative="1" as="geometry" />
        </mxCell>
        <mxCell id="slaMEtAlK2tVnxXeX8oP-104" style="edgeStyle=orthogonalEdgeStyle;rounded=0;orthogonalLoop=1;jettySize=auto;html=1;entryX=0.5;entryY=0.85;entryDx=0;entryDy=0;entryPerimeter=0;" parent="WIyWlLk6GJQsqaUBKTNV-1" source="slaMEtAlK2tVnxXeX8oP-61" target="slaMEtAlK2tVnxXeX8oP-101" edge="1">
          <mxGeometry relative="1" as="geometry" />
        </mxCell>
        <mxCell id="slaMEtAlK2tVnxXeX8oP-107" style="edgeStyle=orthogonalEdgeStyle;rounded=0;orthogonalLoop=1;jettySize=auto;html=1;entryX=0.537;entryY=0.732;entryDx=0;entryDy=0;entryPerimeter=0;" parent="WIyWlLk6GJQsqaUBKTNV-1" source="slaMEtAlK2tVnxXeX8oP-59" target="slaMEtAlK2tVnxXeX8oP-100" edge="1">
          <mxGeometry relative="1" as="geometry" />
        </mxCell>
        <mxCell id="slaMEtAlK2tVnxXeX8oP-117" value="Stone" style="text;html=1;align=center;verticalAlign=middle;whiteSpace=wrap;rounded=0;" parent="WIyWlLk6GJQsqaUBKTNV-1" vertex="1">
          <mxGeometry x="2250" y="695" width="60" height="30" as="geometry" />
        </mxCell>
        <mxCell id="slaMEtAlK2tVnxXeX8oP-119" value="Clay" style="text;html=1;align=center;verticalAlign=middle;whiteSpace=wrap;rounded=0;" parent="WIyWlLk6GJQsqaUBKTNV-1" vertex="1">
          <mxGeometry x="2250" y="755" width="60" height="30" as="geometry" />
        </mxCell>
        <mxCell id="slaMEtAlK2tVnxXeX8oP-120" value="" style="rounded=0;whiteSpace=wrap;html=1;" parent="WIyWlLk6GJQsqaUBKTNV-1" vertex="1">
          <mxGeometry x="2200" y="930" width="160" height="165" as="geometry" />
        </mxCell>
        <mxCell id="slaMEtAlK2tVnxXeX8oP-123" value="Waste storage" style="text;html=1;align=center;verticalAlign=middle;whiteSpace=wrap;rounded=0;" parent="WIyWlLk6GJQsqaUBKTNV-1" vertex="1">
          <mxGeometry x="2250" y="1110" width="60" height="30" as="geometry" />
        </mxCell>
        <mxCell id="slaMEtAlK2tVnxXeX8oP-124" value="&lt;h1 style=&quot;margin-top: 0px;&quot;&gt;Usage&lt;/h1&gt;&lt;p&gt;Sell unsorted material to other industries who might need these materials&lt;/p&gt;" style="text;html=1;whiteSpace=wrap;overflow=hidden;rounded=0;" parent="WIyWlLk6GJQsqaUBKTNV-1" vertex="1">
          <mxGeometry x="2210" y="940" width="140" height="120" as="geometry" />
        </mxCell>
        <mxCell id="slaMEtAlK2tVnxXeX8oP-125" value="&lt;h1 style=&quot;margin-top: 0px;&quot;&gt;Usage&lt;/h1&gt;&lt;p&gt;Ready to be sold to major industries&lt;/p&gt;" style="text;html=1;whiteSpace=wrap;overflow=hidden;rounded=0;" parent="WIyWlLk6GJQsqaUBKTNV-1" vertex="1">
          <mxGeometry x="2190" y="100" width="120" height="120" as="geometry" />
        </mxCell>
        <mxCell id="XfI_x60G29XljIkZ8q81-2" style="edgeStyle=orthogonalEdgeStyle;rounded=0;orthogonalLoop=1;jettySize=auto;html=1;entryX=0.5;entryY=1;entryDx=0;entryDy=0;" parent="WIyWlLk6GJQsqaUBKTNV-1" source="XfI_x60G29XljIkZ8q81-0" target="slaMEtAlK2tVnxXeX8oP-27" edge="1">
          <mxGeometry relative="1" as="geometry">
            <Array as="points">
              <mxPoint x="605" y="879" />
            </Array>
          </mxGeometry>
        </mxCell>
        <mxCell id="XfI_x60G29XljIkZ8q81-0" value="" style="verticalLabelPosition=bottom;aspect=fixed;html=1;verticalAlign=top;fillColor=strokeColor;align=center;outlineConnect=0;shape=mxgraph.fluid_power.x11770;points=[[0,0.5,0]]" parent="WIyWlLk6GJQsqaUBKTNV-1" vertex="1">
          <mxGeometry x="650" y="865" width="46.82" height="27.96" as="geometry" />
        </mxCell>
        <mxCell id="XfI_x60G29XljIkZ8q81-3" style="edgeStyle=orthogonalEdgeStyle;rounded=0;orthogonalLoop=1;jettySize=auto;html=1;entryX=0.336;entryY=0.978;entryDx=0;entryDy=0;entryPerimeter=0;" parent="WIyWlLk6GJQsqaUBKTNV-1" target="slaMEtAlK2tVnxXeX8oP-42" edge="1">
          <mxGeometry relative="1" as="geometry">
            <Array as="points">
              <mxPoint x="1554" y="1109" />
            </Array>
            <mxPoint x="1600.5900000000001" y="1109.0434782608697" as="sourcePoint" />
          </mxGeometry>
        </mxCell>
        <mxCell id="XfI_x60G29XljIkZ8q81-4" value="&lt;div&gt;Weight&lt;/div&gt;&lt;div&gt;PIC16F877A&lt;/div&gt;&lt;div&gt;Sensor&lt;/div&gt;" style="text;html=1;align=center;verticalAlign=middle;resizable=0;points=[];autosize=1;strokeColor=none;fillColor=none;" parent="WIyWlLk6GJQsqaUBKTNV-1" vertex="1">
          <mxGeometry x="706" y="849" width="90" height="60" as="geometry" />
        </mxCell>
        <mxCell id="XfI_x60G29XljIkZ8q81-5" value="&lt;div&gt;Magnetic&lt;/div&gt;&lt;div&gt;PIC16F877A&lt;/div&gt;&lt;div&gt;Sensor&lt;/div&gt;" style="text;html=1;align=center;verticalAlign=middle;resizable=0;points=[];autosize=1;strokeColor=none;fillColor=none;" parent="WIyWlLk6GJQsqaUBKTNV-1" vertex="1">
          <mxGeometry x="1645" y="1080" width="90" height="60" as="geometry" />
        </mxCell>
        <mxCell id="4l5ZVPqNBD5rBkhf8kAT-0" value="M" style="shape=mxgraph.pid.flow_sensors.magnetic;dashed=0;align=center;html=1;fontSize=25;" parent="WIyWlLk6GJQsqaUBKTNV-1" vertex="1">
          <mxGeometry x="1593.5" y="1095" width="39" height="30" as="geometry" />
        </mxCell>
      </root>
    </mxGraphModel>
  </diagram>
</mxfile>
